<svg id="wechat-pay" data-name="WeChat Pay - 微信支付 Logo" xmlns="http://www.w3.org/2000/svg" viewBox="0 0 150 150"><defs><style>.cls-1{fill:#00c800;}.cls-2{fill:#020202;}</style></defs><title>WeChat Pay - 微信支付</title><path class="cls-1" d="M52.89,76.38a2.7,2.7,0,0,1-3.51-1.07l-.18-.38L41.9,59A1.33,1.33,0,0,1,44,57.48l8.55,6.09A3.94,3.94,0,0,0,56,64L96.22,46.09C89,37.6,77.15,32,63.73,32c-22,0-39.78,14.85-39.78,33.16,0,10,5.4,19,13.74,25.06a2.7,2.7,0,0,1,1.12,2.16,3.16,3.16,0,0,1-.13.85L36.88,100a3.9,3.9,0,0,0-.22,1A1.35,1.35,0,0,0,38,102.34a1.5,1.5,0,0,0,.77-.24l8.71-5a4.17,4.17,0,0,1,2.11-.61,4.05,4.05,0,0,1,1.17.18,47.06,47.06,0,0,0,13,1.82c22,0,39.78-14.85,39.78-33.16A28.7,28.7,0,0,0,99,49.95L53.17,76.23Z"/></svg>