<svg id="图层_1" data-name="图层 1" xmlns="http://www.w3.org/2000/svg" viewBox="0 0 299.99 147"><defs><style>.cls-1{fill:#00c800;}.cls-2{fill:#020202;}</style></defs><title>アートボード 1</title><path class="cls-1" d="M52.89,76.38a2.7,2.7,0,0,1-3.51-1.07l-.18-.38L41.9,59A1.33,1.33,0,0,1,44,57.48l8.55,6.09A3.94,3.94,0,0,0,56,64L96.22,46.09C89,37.6,77.15,32,63.73,32c-22,0-39.78,14.85-39.78,33.16,0,10,5.4,19,13.74,25.06a2.7,2.7,0,0,1,1.12,2.16,3.16,3.16,0,0,1-.13.85L36.88,100a3.9,3.9,0,0,0-.22,1A1.35,1.35,0,0,0,38,102.34a1.5,1.5,0,0,0,.77-.24l8.71-5a4.17,4.17,0,0,1,2.11-.61,4.05,4.05,0,0,1,1.17.18,47.06,47.06,0,0,0,13,1.82c22,0,39.78-14.85,39.78-33.16A28.7,28.7,0,0,0,99,49.95L53.17,76.23Z"/><rect class="cls-2" x="178.05" y="68.77" width="22.3" height="1.89"/><rect class="cls-2" x="178.05" y="75.05" width="22.3" height="2.04"/><path class="cls-2" d="M178.61,82.62v12h21.24v-12Zm19.13,10.13H180.65V84.48h17.09Z"/><path class="cls-2" d="M173.17,57.14a62.76,62.76,0,0,1-8.42,18.54h0l1.12,1.93q2-2.89,3.91-6.49V94.77h2V66.93a68.12,68.12,0,0,0,3.31-8.64Z"/><path class="cls-2" d="M189.36,62.33l1.61-.92c-.31-.73-1.65-3.47-2.07-4.41L187,58.09c.68,1.26,1.35,2.52,1.88,3.78a1.26,1.26,0,0,1,.16.47H175.86v2h26.86v-2Z"/><polygon class="cls-2" points="138.98 57.7 140.87 57.7 140.87 67.74 144.8 67.74 144.8 60.68 146.67 60.68 146.67 69.63 133.01 69.63 133.01 60.68 134.9 60.68 134.9 67.74 138.98 67.74 138.98 57.7"/><rect class="cls-2" x="133.63" y="73.72" width="12.1" height="1.89"/><path class="cls-2" d="M147.46,84.66l-3.13,2.7V79.69H134.1v3q.45,6.34-3.13,8.94l1.09,1.89a11.52,11.52,0,0,0,4.05-10V81.57h6.28v4.55a4.36,4.36,0,0,1-.7,2.82l1.17,2q1.57-1.26,5.49-4.7Z"/><path class="cls-2" d="M130.14,57.31a33.52,33.52,0,0,1-7,9.84l1.15,2a40,40,0,0,0,7.67-10.8Z"/><path class="cls-2" d="M129.87,67.59a42,42,0,0,1-7.33,12.15l1.09,1.89q1.86-2.17,3.56-4.5V94.69h1.89V74a53.65,53.65,0,0,0,2.62-5.4Z"/><path class="cls-2" d="M161.44,66.49V64.6h-9a42.71,42.71,0,0,0,2-7.38h-2a49.41,49.41,0,0,1-5.85,15.57l1.19,2.07.88-1.77q.62-1.09.94-1.73A41.61,41.61,0,0,0,153,84.54a33.17,33.17,0,0,1-6.75,7.92l1.13,2a32.56,32.56,0,0,0,6.62-7.82,39.77,39.77,0,0,0,6.24,8l1.15-2a32.66,32.66,0,0,1-6.28-7.87q3.46-6.28,4.24-18.23Zm-7.38,15.86a55.35,55.35,0,0,1-3-14,14.3,14.3,0,0,1,.78-1.89h5.49A45.64,45.64,0,0,1,154.06,82.35Z"/><path d="M268.93,85a115.92,115.92,0,0,0-6.49-10.8l1.7-.85c2.32,3.43,5.2,8,6.57,10.54Z"/><path d="M243.52,94.42l.54-1.78a46.18,46.18,0,0,1-16.59-5.45A30.39,30.39,0,0,0,239,73.68l-1.35-.89-.42.08h-10.8V65.41h16.35v-2H226.47v-7h-2v7H208.18v2h16.31v7.45H213.35v2A31.56,31.56,0,0,0,223.73,87a54.35,54.35,0,0,1-16.63,5.67l.58,1.89v.09a57.93,57.93,0,0,0,17.85-6.4,46.8,46.8,0,0,0,17.85,6.22ZM215.74,74.86H236A28,28,0,0,1,225.59,86,29,29,0,0,1,215.74,74.86Z"/><path d="M258.16,56.69a50.79,50.79,0,0,1-10.68,17.39l.85,2.16v.11a42.16,42.16,0,0,0,5-6.22V94.69h2V66.93A64.8,64.8,0,0,0,260,57.23Z"/><path d="M278.82,66V56.89h-2v9.06H259.4v2h17.4V91.54c0,1-.34,1.23-1.35,1.35a24.94,24.94,0,0,1-3.74.23V94.9a17.24,17.24,0,0,0,5.06-.35c1.35-.34,2-1,2-3V68h5.62V66Z"/></svg>